<?xml version="1.0" standalone="no"?>
<!DOCTYPE svg PUBLIC "-//W3C//DTD SVG 20010904//EN"
 "http://www.w3.org/TR/2001/REC-SVG-20010904/DTD/svg10.dtd">
<svg version="1.0" xmlns="http://www.w3.org/2000/svg"
 width="484.808280pt" height="459.927980pt" viewBox="0 0 484.808280 459.927980"
 preserveAspectRatio="xMidYMid meet">
<metadata>
Created by potrace 1.16, written by Peter Selinger 2001-2019
</metadata>
<rect x="0" y="0" width="100%" height="100%" fill="#D3D3D3"/>
<g transform="translate(-143.837357,616.927980) scale(0.100000,-0.100000)"
fill="#000000" stroke="none">
<path d="M2555 6163 c-19 -4 -206 -64 -778 -248 -256 -83 -286 -99 -318 -170
-43 -93 -27 -145 123 -415 234 -420 361 -647 397 -709 59 -101 103 -130 175
-117 51 10 88 56 144 179 27 62 93 207 146 323 201 445 246 611 232 863 -3 69
-9 142 -12 161 -5 33 -4 34 11 15 49 -61 83 -289 66 -434 -19 -151 -74 -298
-296 -791 l-96 -215 27 -115 c41 -176 46 -242 28 -414 -10 -92 -13 -183 -9
-234 12 -164 77 -345 194 -542 37 -63 80 -137 95 -163 16 -27 31 -45 35 -40 4
4 13 42 19 83 26 176 116 400 224 558 111 162 280 303 421 351 l52 18 7 66 c3
37 11 90 17 118 25 117 2 282 -57 398 -36 72 -112 154 -166 181 -66 32 -159
44 -232 30 -76 -15 -144 -53 -223 -126 -59 -55 -62 -56 -81 -39 -99 89 -38
346 136 578 168 223 409 390 659 455 230 60 529 61 757 3 312 -80 565 -274
726 -557 115 -204 160 -387 113 -461 -11 -18 -29 -33 -38 -33 -10 1 -49 28
-88 61 -86 75 -143 104 -228 120 -193 36 -356 -97 -418 -338 -24 -97 -24 -162
1 -299 11 -60 18 -119 15 -132 -5 -19 -1 -25 17 -30 13 -3 59 -24 103 -46 65
-32 100 -60 185 -145 117 -118 197 -230 264 -372 162 -341 179 -671 42 -804
l-42 -40 194 -355 c106 -195 241 -447 299 -560 105 -204 125 -229 152 -196 10
12 5 39 -28 143 -22 70 -65 214 -95 318 -30 105 -83 278 -116 385 -34 107 -77
247 -97 310 -20 63 -49 158 -65 210 -31 103 -51 140 -73 140 -8 0 -15 3 -15 8
0 4 30 59 66 122 155 271 216 427 236 602 10 86 9 130 -5 263 -19 179 -14 255
27 425 27 112 29 102 -69 307 -155 320 -263 570 -291 672 -24 89 -29 279 -10
388 9 50 24 112 34 138 l18 46 0 -193 c-1 -181 1 -200 28 -303 60 -231 178
-518 366 -889 75 -149 97 -171 170 -170 59 1 93 22 127 77 40 67 315 585 412
778 132 259 143 315 82 411 -37 58 -71 74 -346 158 -126 39 -349 110 -495 156
-265 86 -265 86 -355 82 -150 -6 -241 -60 -419 -246 -39 -40 -80 -75 -93 -78
-12 -3 -78 6 -145 20 -382 81 -618 84 -977 15 -86 -17 -177 -33 -202 -36 l-47
-5 -118 119 c-125 125 -185 165 -293 197 -51 15 -160 20 -206 9z m601 -1582
c182 -82 219 -304 74 -435 -56 -50 -102 -68 -175 -69 -50 -1 -71 5 -124 33
-170 91 -199 282 -64 412 78 76 198 100 289 59z m1676 -14 c79 -47 129 -123
136 -213 5 -58 -23 -133 -70 -189 -69 -82 -217 -107 -310 -53 -98 58 -156 163
-144 261 10 89 84 180 172 213 59 22 162 13 216 -19z"/>
<path d="M3000 4522 c-32 -15 -35 -20 -32 -54 2 -20 -2 -46 -8 -58 -10 -18
-19 -21 -58 -18 l-47 2 -3 -38 c-5 -58 23 -120 75 -166 49 -43 90 -55 159 -47
117 13 199 165 150 280 -25 61 -111 117 -181 117 -11 0 -36 -8 -55 -18z"/>
<path d="M4655 4524 c-22 -7 -41 -14 -42 -14 -1 0 0 -13 3 -30 10 -45 -3 -76
-35 -90 -22 -9 -34 -9 -50 0 -20 10 -21 8 -21 -28 0 -97 75 -203 154 -217 101
-19 197 48 227 158 36 134 -106 266 -236 221z"/>
<path d="M3713 3900 c-129 -24 -230 -86 -254 -157 -24 -74 10 -182 69 -216 38
-23 48 -17 72 39 15 35 24 44 44 44 59 0 92 -73 63 -143 -12 -28 -27 -42 -64
-59 -26 -12 -49 -23 -51 -24 -2 -1 6 -20 17 -42 28 -56 73 -87 156 -110 l70
-19 3 -63 c2 -35 1 -82 -3 -104 -6 -37 -11 -43 -53 -63 -26 -12 -96 -61 -157
-107 -157 -122 -205 -154 -269 -180 l-57 -23 33 -28 c46 -39 158 -90 253 -117
71 -19 105 -22 295 -22 280 -1 387 23 527 117 l62 41 -77 31 c-93 38 -137 65
-239 148 -102 83 -176 133 -218 148 l-35 13 0 107 0 106 62 13 c107 21 175 71
193 140 6 24 3 27 -37 35 -32 8 -48 19 -65 44 -45 67 -17 161 47 161 25 0 32
-7 50 -46 19 -44 22 -46 52 -40 41 8 57 23 79 71 26 57 25 134 -4 176 -55 82
-188 129 -382 135 -71 1 -153 -1 -182 -6z"/>
<path d="M2642 3056 c-6 -13 -29 -81 -51 -152 -22 -71 -96 -309 -164 -529
-198 -635 -238 -770 -231 -788 3 -9 16 -17 29 -17 19 0 62 75 319 561 l296
561 -29 33 c-38 44 -70 130 -85 233 -6 46 -14 80 -18 77 -4 -4 -14 5 -23 19
-21 32 -29 33 -43 2z"/>
</g>
</svg>
